HIERARCHY
ROOT Hips
{
 OFFSET 0.000000 0.000000 0.000000
 CHANNELS 6 Xposition Yposition Zposition Yrotation Xrotation Zrotation
 JOINT Chest
 {
  OFFSET 0.000000 9.585900 0.002600
  CHANNELS 3 Yrotation Xrotation Zrotation
  JOINT Chest2
  {
   OFFSET 0.000000 9.601200 -0.005300
   CHANNELS 3 Yrotation Xrotation Zrotation
   JOINT Chest3
   {
    OFFSET 0.000000 9.561800 0.000000
    CHANNELS 3 Yrotation Xrotation Zrotation
    JOINT Chest4
    {
     OFFSET 0.000000 9.552100 0.000000
     CHANNELS 3 Yrotation Xrotation Zrotation
     JOINT Neck
     {
      OFFSET 0.000000 14.453000 0.000000
      CHANNELS 3 Yrotation Xrotation Zrotation
      JOINT Head
      {
       OFFSET 0.000000 8.936500 -0.011300
       CHANNELS 3 Yrotation Xrotation Zrotation
       End Site
       {
        OFFSET 0.000000 17.073600 -0.006000
       }
      }
     }
     JOINT RightCollar
     {
      OFFSET -2.921100 9.558500 0.000000
      CHANNELS 3 Yrotation Xrotation Zrotation
      JOINT RightShoulder
      {
       OFFSET -13.519700 0.000000 0.000000
       CHANNELS 3 Yrotation Xrotation Zrotation
       JOINT RightElbow
       {
        OFFSET 0.000000 -29.696600 0.000000
        CHANNELS 3 Yrotation Xrotation Zrotation
        JOINT RightWrist
        {
         OFFSET 0.000000 -24.004700 0.000000
         CHANNELS 3 Yrotation Xrotation Zrotation
         End Site
         {
          OFFSET 0.000000 -17.728500 0.000000
         }
        }
       }
      }
     }
     JOINT LeftCollar
     {
      OFFSET 2.921100 9.558500 0.000000
      CHANNELS 3 Yrotation Xrotation Zrotation
      JOINT LeftShoulder
      {
       OFFSET 13.519700 0.000000 0.000000
       CHANNELS 3 Yrotation Xrotation Zrotation
       JOINT LeftElbow
       {
        OFFSET 0.000000 -29.696600 0.000000
        CHANNELS 3 Yrotation Xrotation Zrotation
        JOINT LeftWrist
        {
         OFFSET 0.000000 -24.004700 0.000000
         CHANNELS 3 Yrotation Xrotation Zrotation
         End Site
         {
          OFFSET 0.000000 -17.728500 0.000000
         }
        }
       }
      }
     }
    }
   }
  }
 }
 JOINT RightHip
 {
  OFFSET -7.771700 -0.012900 -0.001300
  CHANNELS 3 Yrotation Xrotation Zrotation
  JOINT RightKnee
  {
   OFFSET 0.000000 -40.869800 0.001200
   CHANNELS 3 Yrotation Xrotation Zrotation
   JOINT RightAnkle
   {
    OFFSET 0.000000 -39.717900 0.002100
    CHANNELS 3 Yrotation Xrotation Zrotation
    JOINT RightToe
    {
     OFFSET 0.000000 -4.965400 11.033500
     CHANNELS 3 Yrotation Xrotation Zrotation
     End Site
     {
      OFFSET 0.000000 -1.423100 5.872300
     }
    }
   }
  }
 }
 JOINT LeftHip
 {
  OFFSET 7.771700 -0.012900 -0.001300
  CHANNELS 3 Yrotation Xrotation Zrotation
  JOINT LeftKnee
  {
   OFFSET 0.000000 -40.869800 0.001200
   CHANNELS 3 Yrotation Xrotation Zrotation
   JOINT LeftAnkle
   {
    OFFSET 0.000000 -39.717900 0.002100
    CHANNELS 3 Yrotation Xrotation Zrotation
    JOINT LeftToe
    {
     OFFSET 0.000000 -4.965400 11.033500
     CHANNELS 3 Yrotation Xrotation Zrotation
     End Site
     {
      OFFSET 0.000000 -1.423100 5.872300
     }
    }
   }
  }
 }
}
MOTION
Frames: 5
Frame Time: 0.008333
0.000000 85.388000 0.000000 0.000000 -5.767877 0.000000 0.000000 11.653817 0.000000 0.000000 -5.885947 0.000000 0.000000 -0.000000 0.000000 0.000000 -0.000000 0.000000 0.000000 12.528835 0.000000 0.000000 0.711642 0.000000 0.000000 -0.000000 0.000000 0.000000 0.000000 -90.000000 0.000000 -2.309062 0.000000 0.000000 2.309062 0.000000 0.000000 -0.000000 0.000000 0.000000 -0.000000 90.000000 0.000000 -2.309062 0.000000 0.000000 2.309062 0.000000 0.000000 8.520406 0.000000 0.000000 1.905762 0.000000 -0.000000 -4.658285 0.000000 0.000000 -0.000000 0.000000 0.000000 8.520406 0.000000 0.000000 1.905762 0.000000 -0.000000 -4.658285 0.000000 0.000000 -0.000000 0.000000
-69.504199 63.056067 12.218643 161.123039 -46.083874 -0.462039 7.777306 24.957328 7.400727 1.029399 4.258358 0.775083 1.693698 6.758130 1.283972 5.913606 20.599813 4.763161 8.104070 14.713779 -4.882629 16.949898 -7.278523 -12.098042 2.512752 6.137218 5.342048 -1.405726 -13.147982 -20.480525 -131.627087 -61.864922 165.284416 21.366158 8.180761 -13.172753 -13.301812 -3.437426 6.062666 -27.345739 -45.452041 51.273207 6.194555 -46.699248 -7.752245 14.024486 18.001584 -1.619214 -4.362699 -14.360042 9.890456 -24.178241 75.672590 -21.744859 1.206843 -14.426672 -3.546033 -0.402346 0.714815 -0.158642 -0.378375 -20.889451 1.600772 16.761778 63.114687 9.981105 -0.485035 -8.060324 1.544838 -0.582751 -0.910581 -0.157001
-69.516267 63.056561 12.210971 161.245381 -46.078966 -0.502919 7.760029 24.944103 7.424069 1.052080 4.252484 0.791530 1.702749 6.750120 1.297031 5.919645 20.587971 4.791947 8.308376 14.883572 -4.833601 17.283947 -6.939549 -12.047539 2.514712 6.166862 5.368727 -1.641334 -13.151465 -20.395040 -131.823695 -61.848200 165.441690 21.355549 8.186070 -13.206090 -13.282373 -3.336188 6.039636 -27.043187 -45.528515 50.899463 4.775188 -46.242790 -5.235775 14.392445 18.178834 -1.730401 -4.361691 -14.360345 9.822064 -24.206401 75.669965 -21.721156 1.207119 -14.462759 -3.536560 -0.409620 0.736189 -0.158432 -0.405839 -20.896389 1.559212 16.765700 63.112068 9.956943 -0.506183 -8.053037 1.594668 -0.606299 -0.896830 -0.180694
-69.528067 63.057397 12.202854 161.325765 -46.077155 -0.520237 7.784029 24.930991 7.462443 1.057919 4.250513 0.798752 1.712248 6.746877 1.308805 5.953260 20.573973 4.831773 8.500626 15.054054 -4.779089 17.593244 -6.602388 -11.981761 2.507509 6.189471 5.391937 -1.817360 -13.165956 -20.378575 -131.963851 -61.808637 165.472458 21.342200 8.189625 -13.237927 -13.267391 -3.244027 6.019324 -26.763136 -45.590895 50.538691 5.081871 -45.527234 -4.447562 14.678568 18.310024 -1.589192 -4.363101 -14.362124 9.770842 -24.248423 75.674201 -21.740466 1.209191 -14.480831 -3.527872 -0.414191 0.739660 -0.158431 -0.340909 -20.899834 1.524956 16.674274 63.117670 9.883782 -0.557880 -8.036764 1.612615 -0.594348 -0.881270 -0.192204
-69.549780 63.059573 12.189959 161.451048 -46.087400 -0.509040 7.756178 24.937952 7.442092 1.009466 4.252760 0.779547 1.778981 6.742898 1.343282 5.986648 20.562651 4.871313 8.683017 15.224079 -4.718840 17.882231 -6.268909 -11.901380 2.498602 6.206944 5.412135 -1.995823 -13.181996 -20.357520 -132.131535 -61.766271 165.531501 21.317126 8.199804 -13.265821 -13.251212 -3.161816 6.000913 -26.448402 -45.674945 50.156649 6.605290 -44.689013 -4.886480 14.807566 18.368477 -1.309447 -4.377679 -14.357636 9.662203 -24.263302 75.695430 -21.752442 1.168600 -14.497648 -3.504515 -0.401142 0.729038 -0.148182 -0.280602 -20.890026 1.427387 16.579626 63.122296 9.806101 -0.672005 -8.023955 1.613754 -0.527279 -0.877648 -0.153257
